<svg width="1200" height="630" viewBox="0 0 1200 630" fill="none" xmlns="http://www.w3.org/2000/svg">
  <rect width="1200" height="630" fill="url(#bg-gradient)" />
  
  <g transform="translate(450, 265) scale(2.5)">
    <circle cx="24" cy="24" r="24" fill="url(#logo-gradient)" />
    <path
      d="M24 12C17.373 12 12 17.373 12 24C12 30.627 17.373 36 24 36C30.627 36 36 30.627 36 24C36 17.373 30.627 12 24 12ZM24 14.4C29.302 14.4 33.6 18.698 33.6 24C33.6 29.302 29.302 33.6 24 33.6C18.698 33.6 14.4 29.302 14.4 24C14.4 18.698 18.698 14.4 24 14.4Z"
      fill="white"
      fillOpacity="0.9"
    />
    <path
      d="M19.2 22.8C19.2 21.697 18.303 20.8 17.2 20.8C16.097 20.8 15.2 21.697 15.2 22.8V27.6C15.2 28.703 16.097 29.6 17.2 29.6C18.303 29.6 19.2 28.703 19.2 27.6V22.8Z"
      fill="white"
    />
    <path
      d="M32.8 27.6C32.8 28.703 31.903 29.6 30.8 29.6C29.697 29.6 28.8 28.703 28.8 27.6V22.8C28.8 21.697 29.697 20.8 30.8 20.8C31.903 20.8 32.8 21.697 32.8 22.8V27.6Z"
      fill="white"
    />
    <path
      d="M24 21.6C22.897 21.6 22 22.497 22 23.6V31.2C22 32.303 22.897 33.2 24 33.2C25.103 33.2 26 32.303 26 31.2V23.6C26 22.497 25.103 21.6 24 21.6Z"
      fill="white"
    />
    <path
      d="M24 20C25.103 20 26 19.103 26 18C26 16.897 25.103 16 24 16C22.897 16 22 16.897 22 18C22 19.103 22.897 20 24 20Z"
      fill="white"
    />
    <path
      d="M30.5 14L21.5 20.5M30.5 14L34 19.5M30.5 14L25.5 11.5"
      stroke="white"
      strokeWidth="2"
      strokeLinecap="round"
      strokeLinejoin="round"
    />
  </g>
  
  <text x="600" y="450" text-anchor="middle" fill="white" font-family="Arial, sans-serif" font-weight="bold" font-size="60">RecoverPro™ Staffing</text>
  <text x="600" y="500" text-anchor="middle" fill="white" font-family="Arial, sans-serif" font-size="30">Top Collectors. Top Pay.</text>
  
  <defs>
    <linearGradient
      id="bg-gradient"
      x1="0"
      y1="0"
      x2="1200"
      y2="630"
      gradientUnits="userSpaceOnUse"
    >
      <stop offset="0%" stopColor="#4338ca" />
      <stop offset="100%" stopColor="#3b82f6" />
    </linearGradient>
    <linearGradient
      id="logo-gradient"
      x1="0"
      y1="0"
      x2="48"
      y2="48"
      gradientUnits="userSpaceOnUse"
    >
      <stop offset="0%" stopColor="#4338ca" />
      <stop offset="100%" stopColor="#3b82f6" />
    </linearGradient>
  </defs>
</svg>